<mxfile host="app.diagrams.net" modified="2022-08-28T10:24:32.354Z" agent="5.0 (Macintosh; Intel Mac OS X 10_15_7) AppleWebKit/605.1.15 (KHTML, like Gecko) Version/15.5 Safari/605.1.15" etag="pHjXPhpvxZm8xgvoFxba" version="20.2.7" type="github">
  <diagram id="C5RBs43oDa-KdzZeNtuy" name="Page-1">
    <mxGraphModel dx="1623" dy="950" grid="1" gridSize="10" guides="1" tooltips="1" connect="1" arrows="1" fold="1" page="1" pageScale="1" pageWidth="827" pageHeight="1169" math="0" shadow="0">
      <root>
        <mxCell id="WIyWlLk6GJQsqaUBKTNV-0" />
        <mxCell id="WIyWlLk6GJQsqaUBKTNV-1" parent="WIyWlLk6GJQsqaUBKTNV-0" />
        <mxCell id="n2vOKn3QKprK6lJtkSvg-0" value="Camera Image Capture Clicked" style="rounded=1;whiteSpace=wrap;html=1;fontSize=12;glass=0;strokeWidth=1;shadow=0;" vertex="1" parent="WIyWlLk6GJQsqaUBKTNV-1">
          <mxGeometry x="390" y="84" width="120" height="40" as="geometry" />
        </mxCell>
        <mxCell id="n2vOKn3QKprK6lJtkSvg-2" value="" style="rounded=0;html=1;jettySize=auto;orthogonalLoop=1;fontSize=11;endArrow=block;endFill=0;endSize=8;strokeWidth=1;shadow=0;labelBackgroundColor=none;edgeStyle=orthogonalEdgeStyle;exitX=0.5;exitY=1;exitDx=0;exitDy=0;" edge="1" parent="WIyWlLk6GJQsqaUBKTNV-1" source="n2vOKn3QKprK6lJtkSvg-0">
          <mxGeometry relative="1" as="geometry">
            <mxPoint x="460" y="-306" as="sourcePoint" />
            <mxPoint x="450" y="164" as="targetPoint" />
          </mxGeometry>
        </mxCell>
        <mxCell id="n2vOKn3QKprK6lJtkSvg-3" value="Write &amp;nbsp;Exif Data&amp;nbsp;" style="rounded=1;whiteSpace=wrap;html=1;fontSize=12;glass=0;strokeWidth=1;shadow=0;" vertex="1" parent="WIyWlLk6GJQsqaUBKTNV-1">
          <mxGeometry x="390" y="164" width="120" height="40" as="geometry" />
        </mxCell>
        <mxCell id="n2vOKn3QKprK6lJtkSvg-5" value="" style="rounded=0;html=1;jettySize=auto;orthogonalLoop=1;fontSize=11;endArrow=block;endFill=0;endSize=8;strokeWidth=1;shadow=0;labelBackgroundColor=none;edgeStyle=orthogonalEdgeStyle;exitX=0.5;exitY=1;exitDx=0;exitDy=0;" edge="1" parent="WIyWlLk6GJQsqaUBKTNV-1" source="n2vOKn3QKprK6lJtkSvg-3">
          <mxGeometry relative="1" as="geometry">
            <mxPoint x="460" y="134" as="sourcePoint" />
            <mxPoint x="450" y="244" as="targetPoint" />
          </mxGeometry>
        </mxCell>
        <mxCell id="n2vOKn3QKprK6lJtkSvg-7" value="Compress Image" style="rounded=1;whiteSpace=wrap;html=1;fontSize=12;glass=0;strokeWidth=1;shadow=0;" vertex="1" parent="WIyWlLk6GJQsqaUBKTNV-1">
          <mxGeometry x="390" y="244" width="120" height="40" as="geometry" />
        </mxCell>
        <mxCell id="n2vOKn3QKprK6lJtkSvg-9" value="" style="rounded=0;html=1;jettySize=auto;orthogonalLoop=1;fontSize=11;endArrow=block;endFill=0;endSize=8;strokeWidth=1;shadow=0;labelBackgroundColor=none;edgeStyle=orthogonalEdgeStyle;exitX=0.5;exitY=1;exitDx=0;exitDy=0;" edge="1" parent="WIyWlLk6GJQsqaUBKTNV-1">
          <mxGeometry relative="1" as="geometry">
            <mxPoint x="450" y="285" as="sourcePoint" />
            <mxPoint x="450" y="325" as="targetPoint" />
          </mxGeometry>
        </mxCell>
        <mxCell id="n2vOKn3QKprK6lJtkSvg-10" value="Save Image to Directory" style="rounded=1;whiteSpace=wrap;html=1;fontSize=12;glass=0;strokeWidth=1;shadow=0;" vertex="1" parent="WIyWlLk6GJQsqaUBKTNV-1">
          <mxGeometry x="390" y="325" width="120" height="40" as="geometry" />
        </mxCell>
        <mxCell id="n2vOKn3QKprK6lJtkSvg-11" value="Yes" style="rounded=0;html=1;jettySize=auto;orthogonalLoop=1;fontSize=11;endArrow=block;endFill=0;endSize=8;strokeWidth=1;shadow=0;labelBackgroundColor=none;edgeStyle=orthogonalEdgeStyle;" edge="1" parent="WIyWlLk6GJQsqaUBKTNV-1" target="n2vOKn3QKprK6lJtkSvg-14">
          <mxGeometry y="20" relative="1" as="geometry">
            <mxPoint as="offset" />
            <mxPoint x="450" y="365" as="sourcePoint" />
          </mxGeometry>
        </mxCell>
        <mxCell id="n2vOKn3QKprK6lJtkSvg-12" value="No" style="rounded=0;html=1;jettySize=auto;orthogonalLoop=1;fontSize=11;endArrow=block;endFill=0;endSize=8;strokeWidth=1;shadow=0;labelBackgroundColor=none;edgeStyle=orthogonalEdgeStyle;" edge="1" parent="WIyWlLk6GJQsqaUBKTNV-1" source="n2vOKn3QKprK6lJtkSvg-14" target="n2vOKn3QKprK6lJtkSvg-15">
          <mxGeometry x="0.3333" y="20" relative="1" as="geometry">
            <mxPoint as="offset" />
          </mxGeometry>
        </mxCell>
        <mxCell id="n2vOKn3QKprK6lJtkSvg-13" value="Yes" style="edgeStyle=orthogonalEdgeStyle;rounded=0;html=1;jettySize=auto;orthogonalLoop=1;fontSize=11;endArrow=block;endFill=0;endSize=8;strokeWidth=1;shadow=0;labelBackgroundColor=none;" edge="1" parent="WIyWlLk6GJQsqaUBKTNV-1" source="n2vOKn3QKprK6lJtkSvg-14" target="n2vOKn3QKprK6lJtkSvg-16">
          <mxGeometry y="10" relative="1" as="geometry">
            <mxPoint as="offset" />
          </mxGeometry>
        </mxCell>
        <mxCell id="n2vOKn3QKprK6lJtkSvg-14" value="is Prereview&lt;br&gt;&amp;nbsp;Button Taped" style="rhombus;whiteSpace=wrap;html=1;shadow=0;fontFamily=Helvetica;fontSize=12;align=center;strokeWidth=1;spacing=6;spacingTop=-4;" vertex="1" parent="WIyWlLk6GJQsqaUBKTNV-1">
          <mxGeometry x="400" y="405" width="100" height="80" as="geometry" />
        </mxCell>
        <mxCell id="n2vOKn3QKprK6lJtkSvg-17" style="edgeStyle=orthogonalEdgeStyle;rounded=0;orthogonalLoop=1;jettySize=auto;html=1;entryX=0;entryY=0.25;entryDx=0;entryDy=0;" edge="1" parent="WIyWlLk6GJQsqaUBKTNV-1" source="n2vOKn3QKprK6lJtkSvg-15" target="n2vOKn3QKprK6lJtkSvg-0">
          <mxGeometry relative="1" as="geometry">
            <mxPoint x="320" y="100" as="targetPoint" />
            <Array as="points">
              <mxPoint x="320" y="565" />
              <mxPoint x="320" y="94" />
            </Array>
          </mxGeometry>
        </mxCell>
        <mxCell id="n2vOKn3QKprK6lJtkSvg-15" value="Repair Lamp" style="rounded=1;whiteSpace=wrap;html=1;fontSize=12;glass=0;strokeWidth=1;shadow=0;" vertex="1" parent="WIyWlLk6GJQsqaUBKTNV-1">
          <mxGeometry x="390" y="545" width="120" height="40" as="geometry" />
        </mxCell>
        <mxCell id="n2vOKn3QKprK6lJtkSvg-16" value="Use Save Image to Display and further Operation" style="rounded=1;whiteSpace=wrap;html=1;fontSize=12;glass=0;strokeWidth=1;shadow=0;" vertex="1" parent="WIyWlLk6GJQsqaUBKTNV-1">
          <mxGeometry x="570" y="422.5" width="150" height="45" as="geometry" />
        </mxCell>
        <mxCell id="n2vOKn3QKprK6lJtkSvg-46" value="Camera Image Capture Clicked" style="rounded=1;whiteSpace=wrap;html=1;fontSize=12;glass=0;strokeWidth=1;shadow=0;" vertex="1" parent="WIyWlLk6GJQsqaUBKTNV-1">
          <mxGeometry x="390" y="660" width="120" height="40" as="geometry" />
        </mxCell>
        <mxCell id="n2vOKn3QKprK6lJtkSvg-47" value="" style="rounded=0;html=1;jettySize=auto;orthogonalLoop=1;fontSize=11;endArrow=block;endFill=0;endSize=8;strokeWidth=1;shadow=0;labelBackgroundColor=none;edgeStyle=orthogonalEdgeStyle;exitX=0.5;exitY=1;exitDx=0;exitDy=0;" edge="1" parent="WIyWlLk6GJQsqaUBKTNV-1" source="n2vOKn3QKprK6lJtkSvg-46">
          <mxGeometry relative="1" as="geometry">
            <mxPoint x="460" y="270" as="sourcePoint" />
            <mxPoint x="450" y="740" as="targetPoint" />
          </mxGeometry>
        </mxCell>
        <mxCell id="n2vOKn3QKprK6lJtkSvg-48" value="Write &amp;nbsp;Exif Data&amp;nbsp;" style="rounded=1;whiteSpace=wrap;html=1;fontSize=12;glass=0;strokeWidth=1;shadow=0;" vertex="1" parent="WIyWlLk6GJQsqaUBKTNV-1">
          <mxGeometry x="390" y="900" width="120" height="40" as="geometry" />
        </mxCell>
        <mxCell id="n2vOKn3QKprK6lJtkSvg-49" value="" style="rounded=0;html=1;jettySize=auto;orthogonalLoop=1;fontSize=11;endArrow=block;endFill=0;endSize=8;strokeWidth=1;shadow=0;labelBackgroundColor=none;edgeStyle=orthogonalEdgeStyle;exitX=0.5;exitY=1;exitDx=0;exitDy=0;" edge="1" parent="WIyWlLk6GJQsqaUBKTNV-1" source="n2vOKn3QKprK6lJtkSvg-48">
          <mxGeometry relative="1" as="geometry">
            <mxPoint x="460" y="870" as="sourcePoint" />
            <mxPoint x="450" y="980" as="targetPoint" />
          </mxGeometry>
        </mxCell>
        <mxCell id="n2vOKn3QKprK6lJtkSvg-50" value="Compress Image" style="rounded=1;whiteSpace=wrap;html=1;fontSize=12;glass=0;strokeWidth=1;shadow=0;" vertex="1" parent="WIyWlLk6GJQsqaUBKTNV-1">
          <mxGeometry x="390" y="980" width="120" height="40" as="geometry" />
        </mxCell>
        <mxCell id="n2vOKn3QKprK6lJtkSvg-51" value="" style="rounded=0;html=1;jettySize=auto;orthogonalLoop=1;fontSize=11;endArrow=block;endFill=0;endSize=8;strokeWidth=1;shadow=0;labelBackgroundColor=none;edgeStyle=orthogonalEdgeStyle;exitX=0.5;exitY=1;exitDx=0;exitDy=0;" edge="1" parent="WIyWlLk6GJQsqaUBKTNV-1">
          <mxGeometry relative="1" as="geometry">
            <mxPoint x="450" y="1021" as="sourcePoint" />
            <mxPoint x="450" y="1061" as="targetPoint" />
          </mxGeometry>
        </mxCell>
        <mxCell id="n2vOKn3QKprK6lJtkSvg-52" value="Save Image to Directory" style="rounded=1;whiteSpace=wrap;html=1;fontSize=12;glass=0;strokeWidth=1;shadow=0;" vertex="1" parent="WIyWlLk6GJQsqaUBKTNV-1">
          <mxGeometry x="390" y="1061" width="120" height="40" as="geometry" />
        </mxCell>
        <mxCell id="n2vOKn3QKprK6lJtkSvg-53" value="Yes" style="rounded=0;html=1;jettySize=auto;orthogonalLoop=1;fontSize=11;endArrow=block;endFill=0;endSize=8;strokeWidth=1;shadow=0;labelBackgroundColor=none;edgeStyle=orthogonalEdgeStyle;" edge="1" parent="WIyWlLk6GJQsqaUBKTNV-1" target="n2vOKn3QKprK6lJtkSvg-56">
          <mxGeometry y="20" relative="1" as="geometry">
            <mxPoint as="offset" />
            <mxPoint x="450" y="1101" as="sourcePoint" />
          </mxGeometry>
        </mxCell>
        <mxCell id="n2vOKn3QKprK6lJtkSvg-54" value="No" style="rounded=0;html=1;jettySize=auto;orthogonalLoop=1;fontSize=11;endArrow=block;endFill=0;endSize=8;strokeWidth=1;shadow=0;labelBackgroundColor=none;edgeStyle=orthogonalEdgeStyle;" edge="1" parent="WIyWlLk6GJQsqaUBKTNV-1" source="n2vOKn3QKprK6lJtkSvg-56" target="n2vOKn3QKprK6lJtkSvg-58">
          <mxGeometry x="0.3333" y="20" relative="1" as="geometry">
            <mxPoint as="offset" />
          </mxGeometry>
        </mxCell>
        <mxCell id="n2vOKn3QKprK6lJtkSvg-55" value="Yes" style="edgeStyle=orthogonalEdgeStyle;rounded=0;html=1;jettySize=auto;orthogonalLoop=1;fontSize=11;endArrow=block;endFill=0;endSize=8;strokeWidth=1;shadow=0;labelBackgroundColor=none;" edge="1" parent="WIyWlLk6GJQsqaUBKTNV-1" source="n2vOKn3QKprK6lJtkSvg-56" target="n2vOKn3QKprK6lJtkSvg-59">
          <mxGeometry y="10" relative="1" as="geometry">
            <mxPoint as="offset" />
          </mxGeometry>
        </mxCell>
        <mxCell id="n2vOKn3QKprK6lJtkSvg-56" value="is Prereview&lt;br&gt;&amp;nbsp;Button Taped" style="rhombus;whiteSpace=wrap;html=1;shadow=0;fontFamily=Helvetica;fontSize=12;align=center;strokeWidth=1;spacing=6;spacingTop=-4;" vertex="1" parent="WIyWlLk6GJQsqaUBKTNV-1">
          <mxGeometry x="400" y="1141" width="100" height="80" as="geometry" />
        </mxCell>
        <mxCell id="n2vOKn3QKprK6lJtkSvg-57" style="edgeStyle=orthogonalEdgeStyle;rounded=0;orthogonalLoop=1;jettySize=auto;html=1;entryX=0;entryY=0.25;entryDx=0;entryDy=0;" edge="1" parent="WIyWlLk6GJQsqaUBKTNV-1" source="n2vOKn3QKprK6lJtkSvg-58" target="n2vOKn3QKprK6lJtkSvg-46">
          <mxGeometry relative="1" as="geometry">
            <mxPoint x="320" y="676" as="targetPoint" />
            <Array as="points">
              <mxPoint x="320" y="1301" />
              <mxPoint x="320" y="670" />
            </Array>
          </mxGeometry>
        </mxCell>
        <mxCell id="n2vOKn3QKprK6lJtkSvg-58" value="ReTake Image" style="rounded=1;whiteSpace=wrap;html=1;fontSize=12;glass=0;strokeWidth=1;shadow=0;" vertex="1" parent="WIyWlLk6GJQsqaUBKTNV-1">
          <mxGeometry x="390" y="1281" width="120" height="40" as="geometry" />
        </mxCell>
        <mxCell id="n2vOKn3QKprK6lJtkSvg-59" value="Use Save Image to Display and further Operation" style="rounded=1;whiteSpace=wrap;html=1;fontSize=12;glass=0;strokeWidth=1;shadow=0;" vertex="1" parent="WIyWlLk6GJQsqaUBKTNV-1">
          <mxGeometry x="570" y="1158.5" width="150" height="45" as="geometry" />
        </mxCell>
        <mxCell id="n2vOKn3QKprK6lJtkSvg-65" value="No" style="rounded=0;html=1;jettySize=auto;orthogonalLoop=1;fontSize=11;endArrow=block;endFill=0;endSize=8;strokeWidth=1;shadow=0;labelBackgroundColor=none;edgeStyle=orthogonalEdgeStyle;entryX=0.5;entryY=0;entryDx=0;entryDy=0;" edge="1" parent="WIyWlLk6GJQsqaUBKTNV-1" source="n2vOKn3QKprK6lJtkSvg-67" target="n2vOKn3QKprK6lJtkSvg-48">
          <mxGeometry x="0.3333" y="20" relative="1" as="geometry">
            <mxPoint as="offset" />
            <mxPoint x="450" y="880" as="targetPoint" />
          </mxGeometry>
        </mxCell>
        <mxCell id="n2vOKn3QKprK6lJtkSvg-66" value="Yes" style="edgeStyle=orthogonalEdgeStyle;rounded=0;html=1;jettySize=auto;orthogonalLoop=1;fontSize=11;endArrow=block;endFill=0;endSize=8;strokeWidth=1;shadow=0;labelBackgroundColor=none;" edge="1" parent="WIyWlLk6GJQsqaUBKTNV-1" source="n2vOKn3QKprK6lJtkSvg-67" target="n2vOKn3QKprK6lJtkSvg-69">
          <mxGeometry y="10" relative="1" as="geometry">
            <mxPoint as="offset" />
          </mxGeometry>
        </mxCell>
        <mxCell id="n2vOKn3QKprK6lJtkSvg-67" value="shouldCaptureImage" style="rhombus;shadow=0;fontFamily=Helvetica;fontSize=12;align=center;strokeWidth=1;spacing=6;spacingTop=0;direction=west;flipH=0;flipV=1;textDirection=ltr;whiteSpace=wrap;html=1;" vertex="1" parent="WIyWlLk6GJQsqaUBKTNV-1">
          <mxGeometry x="384.5" y="740" width="131" height="120" as="geometry" />
        </mxCell>
        <mxCell id="n2vOKn3QKprK6lJtkSvg-111" style="edgeStyle=orthogonalEdgeStyle;rounded=0;orthogonalLoop=1;jettySize=auto;html=1;entryX=-0.001;entryY=0.222;entryDx=0;entryDy=0;entryPerimeter=0;" edge="1" parent="WIyWlLk6GJQsqaUBKTNV-1" source="n2vOKn3QKprK6lJtkSvg-69" target="n2vOKn3QKprK6lJtkSvg-108">
          <mxGeometry relative="1" as="geometry" />
        </mxCell>
        <mxCell id="n2vOKn3QKprK6lJtkSvg-69" value="get Image from Image Stream API" style="rounded=1;whiteSpace=wrap;html=1;fontSize=12;glass=0;strokeWidth=1;shadow=0;" vertex="1" parent="WIyWlLk6GJQsqaUBKTNV-1">
          <mxGeometry x="610" y="777.5" width="150" height="45" as="geometry" />
        </mxCell>
        <mxCell id="n2vOKn3QKprK6lJtkSvg-87" value="Initialised &amp;nbsp;Image Stream" style="rounded=1;whiteSpace=wrap;html=1;fontSize=12;glass=0;strokeWidth=1;shadow=0;" vertex="1" parent="WIyWlLk6GJQsqaUBKTNV-1">
          <mxGeometry x="980" y="740" width="120" height="40" as="geometry" />
        </mxCell>
        <mxCell id="n2vOKn3QKprK6lJtkSvg-88" value="" style="rounded=0;html=1;jettySize=auto;orthogonalLoop=1;fontSize=11;endArrow=block;endFill=0;endSize=8;strokeWidth=1;shadow=0;labelBackgroundColor=none;edgeStyle=orthogonalEdgeStyle;exitX=0.5;exitY=1;exitDx=0;exitDy=0;" edge="1" parent="WIyWlLk6GJQsqaUBKTNV-1" source="n2vOKn3QKprK6lJtkSvg-87">
          <mxGeometry relative="1" as="geometry">
            <mxPoint x="1050" y="350" as="sourcePoint" />
            <mxPoint x="1040" y="820" as="targetPoint" />
          </mxGeometry>
        </mxCell>
        <mxCell id="n2vOKn3QKprK6lJtkSvg-89" value="get &amp;nbsp;CaptureImage" style="rounded=1;whiteSpace=wrap;html=1;fontSize=12;glass=0;strokeWidth=1;shadow=0;" vertex="1" parent="WIyWlLk6GJQsqaUBKTNV-1">
          <mxGeometry x="980" y="820" width="120" height="40" as="geometry" />
        </mxCell>
        <mxCell id="n2vOKn3QKprK6lJtkSvg-90" value="" style="rounded=0;html=1;jettySize=auto;orthogonalLoop=1;fontSize=11;endArrow=block;endFill=0;endSize=8;strokeWidth=1;shadow=0;labelBackgroundColor=none;edgeStyle=orthogonalEdgeStyle;exitX=0.5;exitY=1;exitDx=0;exitDy=0;" edge="1" parent="WIyWlLk6GJQsqaUBKTNV-1" source="n2vOKn3QKprK6lJtkSvg-89">
          <mxGeometry relative="1" as="geometry">
            <mxPoint x="1050" y="790" as="sourcePoint" />
            <mxPoint x="1040" y="900" as="targetPoint" />
          </mxGeometry>
        </mxCell>
        <mxCell id="n2vOKn3QKprK6lJtkSvg-95" value="Yes" style="rounded=0;html=1;jettySize=auto;orthogonalLoop=1;fontSize=11;endArrow=block;endFill=0;endSize=8;strokeWidth=1;shadow=0;labelBackgroundColor=none;edgeStyle=orthogonalEdgeStyle;" edge="1" parent="WIyWlLk6GJQsqaUBKTNV-1" source="n2vOKn3QKprK6lJtkSvg-96" target="n2vOKn3QKprK6lJtkSvg-97">
          <mxGeometry x="0.3333" y="20" relative="1" as="geometry">
            <mxPoint as="offset" />
          </mxGeometry>
        </mxCell>
        <mxCell id="n2vOKn3QKprK6lJtkSvg-96" value="shouldCaptureImage" style="rhombus;whiteSpace=wrap;html=1;shadow=0;fontFamily=Helvetica;fontSize=12;align=center;strokeWidth=1;spacing=6;spacingTop=-4;" vertex="1" parent="WIyWlLk6GJQsqaUBKTNV-1">
          <mxGeometry x="975" y="900" width="130" height="129" as="geometry" />
        </mxCell>
        <mxCell id="n2vOKn3QKprK6lJtkSvg-112" style="edgeStyle=orthogonalEdgeStyle;rounded=0;orthogonalLoop=1;jettySize=auto;html=1;entryX=1;entryY=0.25;entryDx=0;entryDy=0;" edge="1" parent="WIyWlLk6GJQsqaUBKTNV-1" source="n2vOKn3QKprK6lJtkSvg-97" target="n2vOKn3QKprK6lJtkSvg-48">
          <mxGeometry relative="1" as="geometry" />
        </mxCell>
        <mxCell id="n2vOKn3QKprK6lJtkSvg-97" value="Save Capture Image&amp;nbsp;" style="rounded=1;whiteSpace=wrap;html=1;fontSize=12;glass=0;strokeWidth=1;shadow=0;" vertex="1" parent="WIyWlLk6GJQsqaUBKTNV-1">
          <mxGeometry x="980" y="1075" width="120" height="40" as="geometry" />
        </mxCell>
        <mxCell id="n2vOKn3QKprK6lJtkSvg-107" value="No" style="edgeStyle=orthogonalEdgeStyle;rounded=0;html=1;jettySize=auto;orthogonalLoop=1;fontSize=11;endArrow=block;endFill=0;endSize=8;strokeWidth=1;shadow=0;labelBackgroundColor=none;entryX=1;entryY=0.5;entryDx=0;entryDy=0;" edge="1" parent="WIyWlLk6GJQsqaUBKTNV-1" target="n2vOKn3QKprK6lJtkSvg-89">
          <mxGeometry y="10" relative="1" as="geometry">
            <mxPoint as="offset" />
            <mxPoint x="1110" y="960" as="sourcePoint" />
            <mxPoint x="1204.5" y="970" as="targetPoint" />
            <Array as="points">
              <mxPoint x="1180" y="960" />
              <mxPoint x="1180" y="840" />
            </Array>
          </mxGeometry>
        </mxCell>
        <mxCell id="n2vOKn3QKprK6lJtkSvg-108" value="" style="swimlane;startSize=0;html=1;" vertex="1" parent="WIyWlLk6GJQsqaUBKTNV-1">
          <mxGeometry x="900" y="700" width="340" height="450" as="geometry" />
        </mxCell>
      </root>
    </mxGraphModel>
  </diagram>
</mxfile>
